<?xml version="1.0" encoding="UTF-8"?>
<svg id="Capa_1" data-name="Capa 1" xmlns="http://www.w3.org/2000/svg" viewBox="0 0 1580.04 2000">
  <defs>
    <style>
      .cls-1 {
        fill: #1d1d1b;
        stroke-width: 0px;
      }
    </style>
  </defs>
  <path class="cls-1" d="m1334.38,1000c147.9-97.52,245.66-265.11,245.66-455.13,0-284.25-218.92-518.43-497.01-542.72-15.74-1.44-31.71-2.15-47.86-2.15H-6.72v2000h1041.88c16.15,0,32.13-.72,47.86-2.15,278.09-24.29,497.01-258.47,497.01-542.72,0-190.02-97.76-357.6-245.66-455.13ZM172.77,179.49h458.54c-87.59,96.75-141.02,224.9-141.02,365.38s53.37,268.64,140.96,365.38H172.77V179.49Zm730.76,1641.02H172.77v-730.76h730.76v730.76Zm131.63-910.25c-14.18,0-28.12-.84-41.88-2.39-31.29-3.59-61.39-11.13-89.75-22.14-136.59-52.95-233.76-185.77-233.76-340.85s97.16-287.9,233.76-340.85c28.36-11.01,58.45-18.55,89.75-22.14,13.76-1.56,27.7-2.39,41.88-2.39,16.21,0,32.19,1.08,47.86,3.11,178.89,23.51,317.52,177.04,317.52,362.27s-138.63,338.76-317.52,362.27c-15.68,2.03-31.65,3.11-47.86,3.11Zm47.86,907.14v-724.54c178.89,23.51,317.52,176.98,317.52,362.27s-138.63,338.76-317.52,362.27Z"/>
</svg>